# xmcd
#
# Track frame offsets: 
#        150
#        14975
#        31790
#        48880
#        73407
#        92957
#        107787
#        123865
#        148555
#        163340
#        178675
#
# Disc length: 2612 seconds
#
# Revision: 4
# Processed by: cddbd v1.5.2PL0 Copyright (c) Steve Scherf et al.
# Submitted via: ExactAudioCopyFreeDBPlugin 1.0
#
DISCID=9f0a320b
DTITLE=North Mississippi Allstars - 51 Phantom
DYEAR=2001
DGENRE=Blues
TTITLE0=51 Phantom
TTITLE1=Snakes in My Bushes
TTITLE2=Sugartown
TTITLE3=Lord Have Mercy
TTITLE4=Storm
TTITLE5=Freedom Highway
TTITLE6=Circle in The Sky
TTITLE7=Ship
TTITLE8=Leavin'
TTITLE9=Up Over Yonder
TTITLE10=Mud
EXTD=YEAR: 2001
EXTT0=
EXTT1=
EXTT2=
EXTT3=
EXTT4=
EXTT5=
EXTT6=
EXTT7=
EXTT8=
EXTT9=
EXTT10=
PLAYORDER=
